HIERARCHY
ROOT Hips
{
    OFFSET   0.000000   0.000000   0.000000
    CHANNELS 6 Xposition Yposition Zposition Zrotation Xrotation Yrotation
    JOINT Chest
    {
        OFFSET   0.000000   8.007240   0.000000
        CHANNELS 3 Zrotation Xrotation Yrotation
        JOINT Chest2
        {
            OFFSET   0.000000  22.077100   0.000000
            CHANNELS 3 Zrotation Xrotation Yrotation
            JOINT Neck
            {
                OFFSET   0.000000  23.254800   0.000000
                CHANNELS 3 Zrotation Xrotation Yrotation
                JOINT Head
                {
                    OFFSET   0.000000  14.370000   1.956600
                    CHANNELS 3 Zrotation Xrotation Yrotation
                    End Site
                    {
                        OFFSET   0.000000  19.566000   0.000000
                    }
                }
            }
            JOINT LeftCollar
            {
                OFFSET   3.911900  19.017000  -0.467064
                CHANNELS 3 Zrotation Xrotation Yrotation
                JOINT LeftShoulder
                {
                    OFFSET  10.383700   0.000000   0.000000
                    CHANNELS 3 Zrotation Xrotation Yrotation
                    JOINT LeftElbow
                    {
                        OFFSET  26.662100   0.001476   0.000517
                        CHANNELS 3 Zrotation Xrotation Yrotation
                        JOINT LeftWrist
                        {
                            OFFSET  28.869000  -0.000025  -0.000106
                            CHANNELS 3 Zrotation Xrotation Yrotation
                            JOINT LeftFinger0
                            {
                                OFFSET   2.044660  -2.323460   3.252850
                                CHANNELS 3 Zrotation Xrotation Yrotation
                                JOINT LeftFinger01
                                {
                                    OFFSET   3.088130   0.000000   0.000000
                                    CHANNELS 3 Zrotation Xrotation Yrotation
                                    JOINT LeftFinger02
                                    {
                                        OFFSET   2.639460   0.000000   0.000000
                                        CHANNELS 3 Zrotation Xrotation Yrotation
                                        End Site
                                        {
                                            OFFSET   2.582190   0.000000   0.000000
                                        }
                                    }
                                }
                            }
                            JOINT LeftFinger1
                            {
                                OFFSET   8.364480   0.000000   3.252850
                                CHANNELS 3 Zrotation Xrotation Yrotation
                                JOINT LeftFinger11
                                {
                                    OFFSET   4.646930   0.000000   0.000000
                                    CHANNELS 3 Zrotation Xrotation Yrotation
                                    JOINT LeftFinger12
                                    {
                                        OFFSET   2.323460   0.000000   0.000000
                                        CHANNELS 3 Zrotation Xrotation Yrotation
                                        End Site
                                        {
                                            OFFSET   2.273050   0.000000   0.000000
                                        }
                                    }
                                }
                            }
                            JOINT LeftFinger2
                            {
                                OFFSET   8.364490   0.000015   1.078090
                                CHANNELS 3 Zrotation Xrotation Yrotation
                                JOINT LeftFinger21
                                {
                                    OFFSET   5.111620   0.000000   0.000000
                                    CHANNELS 3 Zrotation Xrotation Yrotation
                                    JOINT LeftFinger22
                                    {
                                        OFFSET   2.788160   0.000016   0.000000
                                        CHANNELS 3 Zrotation Xrotation Yrotation
                                        End Site
                                        {
                                            OFFSET   2.727660   0.000000   0.000000
                                        }
                                    }
                                }
                            }
                            JOINT LeftFinger3
                            {
                                OFFSET   7.899780   0.000017  -1.078090
                                CHANNELS 3 Zrotation Xrotation Yrotation
                                JOINT LeftFinger31
                                {
                                    OFFSET   4.646930   0.000000   0.000000
                                    CHANNELS 3 Zrotation Xrotation Yrotation
                                    JOINT LeftFinger32
                                    {
                                        OFFSET   2.323470   0.000000   0.000000
                                        CHANNELS 3 Zrotation Xrotation Yrotation
                                        End Site
                                        {
                                            OFFSET   2.273050   0.000000   0.000000
                                        }
                                    }
                                }
                            }
                            JOINT LeftFinger4
                            {
                                OFFSET   7.435090   0.000000  -3.252850
                                CHANNELS 3 Zrotation Xrotation Yrotation
                                JOINT LeftFinger41
                                {
                                    OFFSET   3.717550   0.000000   0.000000
                                    CHANNELS 3 Zrotation Xrotation Yrotation
                                    JOINT LeftFinger42
                                    {
                                        OFFSET   1.858770   0.000000   0.000000
                                        CHANNELS 3 Zrotation Xrotation Yrotation
                                        End Site
                                        {
                                            OFFSET   1.818440   0.000000   0.000000
                                        }
                                    }
                                }
                            }
                        }
                    }
                }
            }
            JOINT RightCollar
            {
                OFFSET  -3.911900  19.017000  -0.467063
                CHANNELS 3 Zrotation Xrotation Yrotation
                JOINT RightShoulder
                {
                    OFFSET -10.383700   0.000019   0.000000
                    CHANNELS 3 Zrotation Xrotation Yrotation
                    JOINT RightElbow
                    {
                        OFFSET -26.662100   0.001175   0.000102
                        CHANNELS 3 Zrotation Xrotation Yrotation
                        JOINT RightWrist
                        {
                            OFFSET -28.869000   0.000016  -0.000079
                            CHANNELS 3 Zrotation Xrotation Yrotation
                            JOINT RightFinger0
                            {
                                OFFSET  -2.044660  -2.323490   3.252850
                                CHANNELS 3 Zrotation Xrotation Yrotation
                                JOINT RightFinger01
                                {
                                    OFFSET  -3.088140   0.000000   0.000000
                                    CHANNELS 3 Zrotation Xrotation Yrotation
                                    JOINT RightFinger02
                                    {
                                        OFFSET  -2.639460   0.000000   0.000000
                                        CHANNELS 3 Zrotation Xrotation Yrotation
                                        End Site
                                        {
                                            OFFSET  -2.582190   0.000000   0.000000
                                        }
                                    }
                                }
                            }
                            JOINT RightFinger1
                            {
                                OFFSET  -8.364480   0.000000   3.252850
                                CHANNELS 3 Zrotation Xrotation Yrotation
                                JOINT RightFinger11
                                {
                                    OFFSET  -4.646930   0.000000   0.000000
                                    CHANNELS 3 Zrotation Xrotation Yrotation
                                    JOINT RightFinger12
                                    {
                                        OFFSET  -2.323470   0.000000   0.000000
                                        CHANNELS 3 Zrotation Xrotation Yrotation
                                        End Site
                                        {
                                            OFFSET  -2.273050   0.000000   0.000000
                                        }
                                    }
                                }
                            }
                            JOINT RightFinger2
                            {
                                OFFSET  -8.364480   0.000000   1.078090
                                CHANNELS 3 Zrotation Xrotation Yrotation
                                JOINT RightFinger21
                                {
                                    OFFSET  -5.111620   0.000000   0.000000
                                    CHANNELS 3 Zrotation Xrotation Yrotation
                                    JOINT RightFinger22
                                    {
                                        OFFSET  -2.788160   0.000000   0.000000
                                        CHANNELS 3 Zrotation Xrotation Yrotation
                                        End Site
                                        {
                                            OFFSET  -2.727660   0.000000   0.000000
                                        }
                                    }
                                }
                            }
                            JOINT RightFinger3
                            {
                                OFFSET  -7.899780   0.000000  -1.078090
                                CHANNELS 3 Zrotation Xrotation Yrotation
                                JOINT RightFinger31
                                {
                                    OFFSET  -4.646930   0.000000   0.000000
                                    CHANNELS 3 Zrotation Xrotation Yrotation
                                    JOINT RightFinger32
                                    {
                                        OFFSET  -2.323470   0.000000   0.000000
                                        CHANNELS 3 Zrotation Xrotation Yrotation
                                        End Site
                                        {
                                            OFFSET  -2.273050   0.000000   0.000000
                                        }
                                    }
                                }
                            }
                            JOINT RightFinger4
                            {
                                OFFSET  -7.435090   0.000000  -3.252850
                                CHANNELS 3 Zrotation Xrotation Yrotation
                                JOINT RightFinger41
                                {
                                    OFFSET  -3.717550   0.000000   0.000000
                                    CHANNELS 3 Zrotation Xrotation Yrotation
                                    JOINT RightFinger42
                                    {
                                        OFFSET  -1.858770   0.000000   0.000000
                                        CHANNELS 3 Zrotation Xrotation Yrotation
                                        End Site
                                        {
                                            OFFSET  -1.818440   0.000000   0.000000
                                        }
                                    }
                                }
                            }
                        }
                    }
                }
            }
        }
    }
    JOINT LeftHip
    {
        OFFSET   9.783040   0.000000   0.000000
        CHANNELS 3 Zrotation Xrotation Yrotation
        JOINT LeftKnee
        {
            OFFSET   0.000032 -41.789100  -0.002222
            CHANNELS 3 Zrotation Xrotation Yrotation
            JOINT LeftAnkle
            {
                OFFSET   0.000087 -41.133200  -0.000135
                CHANNELS 3 Zrotation Xrotation Yrotation
                JOINT LeftToe
                {
                    OFFSET   0.000000  -6.358960  14.674500
                    CHANNELS 3 Zrotation Xrotation Yrotation
                    End Site
                    {
                        OFFSET   0.000000   0.000000   3.913200
                    }
                }
            }
        }
    }
    JOINT RightHip
    {
        OFFSET  -9.783040   0.000000   0.000000
        CHANNELS 3 Zrotation Xrotation Yrotation
        JOINT RightKnee
        {
            OFFSET   0.000047 -41.789100  -0.000896
            CHANNELS 3 Zrotation Xrotation Yrotation
            JOINT RightAnkle
            {
                OFFSET  -0.000117 -41.133300  -0.000248
                CHANNELS 3 Zrotation Xrotation Yrotation
                JOINT RightToe
                {
                    OFFSET   0.000000  -6.358970  14.674500
                    CHANNELS 3 Zrotation Xrotation Yrotation
                    End Site
                    {
                        OFFSET   0.000000   0.000000   3.913200
                    }
                }
            }
        }
    }
}
MOTION
Frames: 5
Frame Time:   0.016667
 -2.272000  89.512100   1.169870  -2.632100  -4.078990  -1.178410   1.852470   4.214260  -0.126418   3.729480   8.422200  -0.391396  -0.156558  -0.922229  -0.012316  -0.256618  -1.870010   3.901240  -7.389210   2.074960  -2.767380 -66.744100  22.622800  -8.319940  -3.335410  -8.209880  -9.688770   2.547260  -5.720660   7.063910  38.418300  28.467200 -70.003200 -17.700700   0.006391   0.004402  -3.850350   0.004453   0.002286 -27.717600   5.457520 -10.260500 -23.069500   0.003248  -0.000000 -16.148700   0.002219  -0.001218 -27.112100   3.265860  -6.348110 -28.255600  -0.003409  -0.001842 -18.818200   0.002224  -0.001232 -27.265400   0.739612  -1.434620 -28.167400   0.001309  -0.001623 -18.751300   0.001967  -0.001063 -29.550300   0.635956  -1.121560 -44.334700   0.001499  -0.000142 -29.526900   0.002100   0.000644   9.683410  -1.784780  10.917900  64.768800  15.041600   0.251921   0.967843  -4.688560   8.573110  -9.753640 -11.071300   0.823104 -40.292200  34.049200  72.881500  26.678400   0.000197  -0.002883   8.339210   0.000416  -0.003061  37.569000  11.321300  14.320200  31.905300   0.006918   0.000342  22.333700   0.011194   0.005934  28.989900   4.982730   8.917120  44.067400   0.008932   0.006986  29.348900   0.006904   0.003972  29.354900   3.738370   6.610480  44.364400   0.010704   0.004203  29.539600   0.009484   0.006826  42.741000  -1.910400  -2.067920  64.162800   0.005197   0.006919  42.732500   0.004049  -0.004718   3.769610   8.590470   3.710870   0.576191   0.827928  10.026100  -3.334850  -3.896740   2.895450  -0.000000   0.000000   0.000000   1.408400   4.650340  -6.770710   1.792500   3.142400  -5.093790  -2.217650  -2.925230   0.011321   0.000000   0.000000   0.000000
 -2.268020  89.512100   1.175650  -2.631500  -4.086670  -1.168510   1.852460   4.218960  -0.124503   3.729390   8.431650  -0.387709  -0.156319  -0.936071  -0.012314  -0.254912  -1.897980   3.905410  -7.389390   2.067830  -2.767370 -66.742700  22.628700  -8.336080  -3.338890  -8.228110  -9.691340   2.568630  -5.727480   7.059220  38.429300  28.479300 -70.008500 -17.686300   0.006380   0.004385  -3.843130   0.004460   0.002299 -27.710200   5.469050 -10.285300 -23.069500   0.003248  -0.000000 -16.148700   0.002219  -0.001217 -27.112200   3.273180  -6.362640 -28.255700  -0.003407  -0.001840 -18.818200   0.002225  -0.001229 -27.265400   0.758206  -1.470740 -28.167200   0.001309  -0.001617 -18.752600   0.001968  -0.001062 -29.551400   0.655473  -1.155920 -44.336900   0.001498  -0.000138 -29.528400   0.002100   0.000643   9.684650  -1.791140  10.917600  64.771300  15.052100   0.244415   0.971270  -4.692670   8.558060  -9.746300 -11.068500   0.808847 -40.286100  34.049700  72.882700  26.688100   0.000197  -0.002882   8.344020   0.000418  -0.003060  37.549000  11.320900  14.328700  31.889700   0.006913   0.000333  22.322800   0.011187   0.005925  28.978000   4.982680   8.921550  44.049900   0.008928   0.006982  29.337200   0.006899   0.003963  29.354600   3.739300   6.612610  44.364600   0.010699   0.004197  29.539600   0.009480   0.006824  42.737400  -1.910500  -2.067980  64.156900   0.005191   0.006914  42.729000   0.004044  -0.004717   3.768690   8.597940   3.711140   0.571784   0.834482  10.031900  -3.336970  -3.899400   2.881350  -0.000000   0.000000   0.000000   1.409170   4.661890  -6.764850   1.793620   3.146150  -5.090720  -2.221860  -2.934050  -0.011392  -0.000000   0.000000  -0.000000
 -2.261120  89.512100   1.184610  -2.630320  -4.101760  -1.148960   1.852400   4.229230  -0.121599   3.729100   8.452260  -0.382220  -0.156082  -0.958359  -0.012309  -0.253912  -1.943110   3.914240  -7.389840   2.055130  -2.767350 -66.737400  22.637200  -8.366920  -3.343810  -8.248720  -9.700890   2.604350  -5.737400   7.051050  38.440000  28.497700 -70.023200 -17.671800   0.006365   0.004356  -3.835920   0.004467   0.002312 -27.699900   5.488290 -10.324500 -23.069500   0.003249   0.000000 -16.148700   0.002216  -0.001214 -27.114000   3.284790  -6.385090 -28.256200  -0.003404  -0.001833 -18.818600   0.002225  -0.001224 -27.266900   0.785625  -1.523880 -28.167100   0.001309  -0.001602 -18.759300   0.001970  -0.001058 -29.556700   0.683170  -1.204500 -44.345700   0.001497  -0.000130 -29.534300   0.002101   0.000642   9.687430  -1.805300  10.917400  64.773600  15.068100   0.236915   0.977545  -4.702980   8.534550  -9.735340 -11.060800   0.786286 -40.272900  34.052100  72.888300  26.705300   0.000203  -0.002877   8.352630   0.000420  -0.003059  37.519400  11.320300  14.341100  31.866600   0.006901   0.000308  22.306600   0.011172   0.005904  28.960700   4.982610   8.928030  44.024300   0.008914   0.006972  29.320100   0.006885   0.003941  29.353400   3.744100   6.621690  44.364900   0.010686   0.004180  29.539500   0.009468   0.006819  42.731400  -1.910720  -2.068070  64.148700   0.005175   0.006903  42.723100   0.004032  -0.004711   3.767580   8.608520   3.711440   0.565441   0.851963  10.037700  -3.341010  -3.907030   2.857380   0.000000   0.000000  -0.000000   1.409950   4.680460  -6.757660   1.794900   3.154940  -5.082700  -2.229910  -2.948250  -0.053851  -0.000000   0.000000  -0.000000
 -2.254950  89.512000   1.190530  -2.628940  -4.118170  -1.126890   1.852270   4.242220  -0.120135   3.728880   8.478300  -0.379710  -0.157700  -0.974240  -0.012300  -0.258100  -1.975520   3.925810  -7.390280   2.043830  -2.771410 -66.728300  22.638700  -8.398700  -3.341960  -8.249940  -9.720690   2.635600  -5.742230   7.043540  38.426800  28.512800 -70.053000 -17.674100   0.006362   0.004332  -3.837070   0.004460   0.002301 -27.704600   5.507620 -10.357500 -23.076700   0.003248   0.000000 -16.153700   0.002207  -0.001210 -27.120800   3.294630  -6.402270 -28.286400  -0.003401  -0.001821 -18.838800   0.002225  -0.001219 -27.273100   0.802340  -1.555870 -28.193000   0.001309  -0.001583 -18.779200   0.001969  -0.001044 -29.570900   0.696379  -1.227020 -44.367200   0.001497  -0.000121 -29.548600   0.002099   0.000646   9.691080  -1.823370  10.918800  64.771400  15.076100   0.237310   0.983445  -4.718940   8.519130  -9.728900 -11.046900   0.770233 -40.255800  34.057500  72.900400  26.720000   0.000223  -0.002843   8.359990   0.000421  -0.003075  37.503400  11.320000  14.347900  31.854000   0.006885   0.000267  22.297800   0.011155   0.005873  28.952000   4.982590   8.931190  44.011400   0.008886   0.006956  29.311600   0.006862   0.003903  29.349900   3.758620   6.647390  44.364800   0.010667   0.004155  29.539500   0.009450   0.006808  42.726200  -1.911010  -2.068160  64.146200   0.005153   0.006885  42.718000   0.004013  -0.004703   3.767480   8.610930   3.711210   0.559564   0.889111  10.035200  -3.346220  -3.924230   2.837340   0.000000   0.000000   0.000000   1.409300   4.691590  -6.756140   1.794700   3.169220  -5.071410  -2.238780  -2.958930  -0.097851  -0.000000   0.000000   0.000000
 -2.248690  89.512000   1.195170  -2.627400  -4.138210  -1.101220   1.852150   4.258750  -0.118505   3.728660   8.511460  -0.376986  -0.160830  -0.989792  -0.012287  -0.264376  -2.007250   3.938460  -7.390890   2.030340  -2.780150 -66.713500  22.644500  -8.437430  -3.337430  -8.251040  -9.745250   2.662110  -5.745380   7.036110  38.414400  28.520400 -70.074600 -17.683100   0.006359   0.004302  -3.841550   0.004452   0.002287 -27.712100   5.519230 -10.376000 -23.083900   0.003247   0.000000 -16.158700   0.002196  -0.001207 -27.125800   3.300180  -6.411520 -28.316200  -0.003396  -0.001807 -18.858600   0.002224  -0.001211 -27.277800   0.810227  -1.570830 -28.218900   0.001309  -0.001559 -18.793800   0.001968  -0.001024 -29.583700   0.701407  -1.235320 -44.386900   0.001499  -0.000108 -29.561700   0.002097   0.000650   9.695900  -1.847120  10.923300  64.763400  15.085500   0.239182   0.990626  -4.738170   8.505410  -9.724720 -11.032600   0.756668 -40.236400  34.064800  72.916800  26.739100   0.000253  -0.002793   8.369530   0.000423  -0.003107  37.492400  11.319800  14.352600  31.845400   0.006862   0.000214  22.291800   0.011133   0.005832  28.946000   4.982590   8.933500  44.002600   0.008853   0.006934  29.305700   0.006832   0.003854  29.347400   3.769270   6.666130  44.364400   0.010640   0.004121  29.539500   0.009426   0.006793  42.721400  -1.911300  -2.068220  64.144300   0.005125   0.006862  42.713200   0.003988  -0.004690   3.767530   8.615340   3.710250   0.555662   0.915339  10.030300  -3.350240  -3.936490   2.816590  -0.000000   0.000000   0.000000   1.407360   4.706480  -6.756050   1.794090   3.182680  -5.054250  -2.248290  -2.968160  -0.146653  -0.000000   0.000000  -0.000000
